Crispy root-x1000y0t1000.ufo
<glyph name="ampersand" format="2">
  <advance width="4739"/>
  <unicode hex="0026"/>
  <outline>
    <contour>
      <point x="130" y="842" type="line"/>
      <point x="130" y="0" type="line"/>
      <point x="2945" y="0" type="line"/>
      <point x="3342" y="503" type="line"/>
      <point x="3545" y="503" type="line"/>
      <point x="4493" y="-135" type="line"/>
      <point x="4639" y="-4" type="line"/>
      <point x="3846" y="505" type="line"/>
      <point x="2892" y="505" type="line"/>
      <point x="2506" y="2" type="line"/>
      <point x="1132" y="2" type="line"/>
      <point x="1132" y="840" type="line"/>
      <point x="2070" y="840" type="line"/>
      <point x="2070" y="1142" type="line"/>
      <point x="2687" y="1598" type="line"/>
      <point x="3326" y="1598" type="line"/>
      <point x="3326" y="1035" type="line"/>
      <point x="4340" y="1035" type="line"/>
      <point x="4340" y="1600" type="line"/>
      <point x="1876" y="1600" type="line"/>
      <point x="1258" y="1143" type="line"/>
      <point x="1258" y="842" type="line"/>
    </contour>
  </outline>
</glyph>
<glyph name="quotesingle" format="2">
  <advance width="1572"/>
  <unicode hex="0027"/>
  <outline>
    <contour>
      <point x="378" y="788" type="line"/>
      <point x="1194" y="788" type="line"/>
      <point x="1294" y="1600" type="line"/>
      <point x="278" y="1600" type="line"/>
    </contour>
  </outline>
</glyph>
<glyph name="parenleft" format="2">
  <advance width="1973"/>
  <unicode hex="0028"/>
  <outline>
    <contour>
      <point x="190" y="0" type="line"/>
      <point x="1206" y="0" type="line"/>
      <point x="1206" y="1494" type="line"/>
      <point x="1401" y="1798" type="line"/>
      <point x="2023" y="1798" type="line"/>
      <point x="2023" y="1800" type="line"/>
      <point x="500" y="1800" type="line"/>
      <point x="190" y="1356" type="line"/>
    </contour>
  </outline>
</glyph>
<glyph name="asterisk" format="2">
  <advance width="2196"/>
  <unicode hex="002A"/>
  <outline>
    <contour>
      <point x="923" y="455" type="line"/>
      <point x="1083" y="1002" type="line"/>
      <point x="1286" y="458" type="line"/>
      <point x="1758" y="683" type="line"/>
      <point x="1216" y="1073" type="line"/>
      <point x="1964" y="1243" type="line"/>
      <point x="1966" y="1246" type="line"/>
      <point x="1214" y="1075" type="line"/>
      <point x="1471" y="1600" type="line"/>
      <point x="693" y="1600" type="line"/>
      <point x="947" y="1071" type="line"/>
      <point x="230" y="1246" type="line"/>
      <point x="231" y="1243" type="line"/>
      <point x="944" y="1068" type="line"/>
      <point x="451" y="688" type="line"/>
    </contour>
  </outline>
</glyph>
<glyph name="hyphen" format="2">
  <advance width="2817"/>
  <unicode hex="002D"/>
  <outline>
    <contour>
      <point x="400" y="799" type="line"/>
      <point x="2417" y="799" type="line"/>
      <point x="2417" y="801" type="line"/>
      <point x="400" y="801" type="line"/>
    </contour>
  </outline>
</glyph>
<glyph name="three" format="2">
  <advance width="5313"/>
  <unicode hex="0033"/>
  <outline>
    <contour>
      <point x="250" y="0" type="line"/>
      <point x="5103" y="0" type="line"/>
      <point x="5103" y="801" type="line"/>
      <point x="4345" y="801" type="line"/>
      <point x="4755" y="1218" type="line"/>
      <point x="4755" y="1600" type="line"/>
      <point x="497" y="1600" type="line"/>
      <point x="497" y="998" type="line"/>
      <point x="1513" y="998" type="line"/>
      <point x="1513" y="1598" type="line"/>
      <point x="3739" y="1598" type="line"/>
      <point x="3739" y="1205" type="line"/>
      <point x="3339" y="801" type="line"/>
      <point x="2021" y="801" type="line"/>
      <point x="2021" y="799" type="line"/>
      <point x="4087" y="799" type="line"/>
      <point x="4087" y="2" type="line"/>
      <point x="1266" y="2" type="line"/>
      <point x="1266" y="602" type="line"/>
      <point x="250" y="602" type="line"/>
    </contour>
  </outline>
</glyph>
<glyph name="six" format="2">
  <advance width="5323"/>
  <unicode hex="0036"/>
  <outline>
    <contour>
      <point x="190" y="0" type="line"/>
      <point x="5073" y="0" type="line"/>
      <point x="5073" y="801" type="line"/>
      <point x="1205" y="801" type="line"/>
      <point x="1205" y="1145" type="line"/>
      <point x="1640" y="1598" type="line"/>
      <point x="3926" y="1598" type="line"/>
      <point x="3926" y="1068" type="line"/>
      <point x="4942" y="1068" type="line"/>
      <point x="4942" y="1600" type="line"/>
      <point x="692" y="1600" type="line"/>
      <point x="190" y="1108" type="line"/>
    </contour>
    <contour>
      <point x="4057" y="799" type="line"/>
      <point x="4057" y="2" type="line"/>
      <point x="1205" y="2" type="line"/>
      <point x="1205" y="799" type="line"/>
    </contour>
  </outline>
</glyph>
<glyph name="A" format="2">
  <advance width="5609"/>
  <unicode hex="0041"/>
  <outline>
    <contour>
      <point x="190" y="0" type="line"/>
      <point x="1205" y="0" type="line"/>
      <point x="1205" y="1144" type="line"/>
      <point x="1639" y="1598" type="line"/>
      <point x="4404" y="1598" type="line"/>
      <point x="4404" y="0" type="line"/>
      <point x="5419" y="0" type="line"/>
      <point x="5419" y="1600" type="line"/>
      <point x="688" y="1600" type="line"/>
      <point x="190" y="1105" type="line"/>
    </contour>
    <contour>
      <point x="1075" y="698" type="line"/>
      <point x="4529" y="698" type="line"/>
      <point x="4529" y="700" type="line"/>
      <point x="1075" y="700" type="line"/>
    </contour>
  </outline>
</glyph>
<glyph name="D" format="2">
  <advance width="5519"/>
  <unicode hex="0044"/>
  <outline>
    <contour>
      <point x="380" y="0" type="line"/>
      <point x="4812" y="0" type="line"/>
      <point x="5329" y="545" type="line"/>
      <point x="5329" y="1600" type="line"/>
      <point x="380" y="1600" type="line"/>
    </contour>
    <contour>
      <point x="1395" y="2" type="line"/>
      <point x="1395" y="1598" type="line"/>
      <point x="4314" y="1598" type="line"/>
      <point x="4314" y="546" type="line"/>
      <point x="3797" y="2" type="line"/>
    </contour>
  </outline>
</glyph>
<glyph name="H" format="2">
  <advance width="5852"/>
  <unicode hex="0048"/>
  <outline>
    <contour>
      <point x="380" y="0" type="line"/>
      <point x="1395" y="0" type="line"/>
      <point x="1395" y="799" type="line"/>
      <point x="4456" y="799" type="line"/>
      <point x="4456" y="0" type="line"/>
      <point x="5472" y="0" type="line"/>
      <point x="5472" y="1600" type="line"/>
      <point x="4456" y="1600" type="line"/>
      <point x="4456" y="801" type="line"/>
      <point x="1395" y="801" type="line"/>
      <point x="1395" y="1600" type="line"/>
      <point x="380" y="1600" type="line"/>
    </contour>
  </outline>
</glyph>
<glyph name="I" format="2">
  <advance width="4422"/>
  <unicode hex="0049"/>
  <outline>
    <contour>
      <point x="310" y="0" type="line"/>
      <point x="4112" y="0" type="line"/>
      <point x="4112" y="2" type="line"/>
      <point x="2719" y="2" type="line"/>
      <point x="2719" y="1598" type="line"/>
      <point x="4112" y="1598" type="line"/>
      <point x="4112" y="1600" type="line"/>
      <point x="310" y="1600" type="line"/>
      <point x="310" y="1598" type="line"/>
      <point x="1703" y="1598" type="line"/>
      <point x="1703" y="2" type="line"/>
      <point x="310" y="2" type="line"/>
    </contour>
  </outline>
</glyph>
<glyph name="J" format="2">
  <advance width="5083"/>
  <unicode hex="004A"/>
  <outline>
    <contour>
      <point x="310" y="0" type="line"/>
      <point x="4703" y="0" type="line"/>
      <point x="4703" y="1600" type="line"/>
      <point x="3687" y="1600" type="line"/>
      <point x="3687" y="2" type="line"/>
      <point x="1247" y="2" type="line"/>
      <point x="1247" y="850" type="line"/>
      <point x="310" y="850" type="line"/>
    </contour>
  </outline>
</glyph>
<glyph name="K" format="2">
  <advance width="5332"/>
  <unicode hex="004B"/>
  <outline>
    <contour>
      <point x="1395" y="0" type="line"/>
      <point x="1395" y="799" type="line"/>
      <point x="4168" y="799" type="line"/>
      <point x="4168" y="0" type="line"/>
      <point x="5183" y="0" type="line"/>
      <point x="5183" y="801" type="line"/>
      <point x="4312" y="801" type="line"/>
      <point x="4723" y="1508" type="line"/>
      <point x="3835" y="1696" type="line"/>
      <point x="3326" y="801" type="line"/>
      <point x="1395" y="801" type="line"/>
      <point x="1395" y="1600" type="line"/>
      <point x="380" y="1600" type="line"/>
      <point x="380" y="0" type="line"/>
    </contour>
  </outline>
</glyph>
<glyph name="M" format="2">
  <advance width="5183"/>
  <unicode hex="004D"/>
  <outline>
    <contour>
      <point x="60" y="0" type="line"/>
      <point x="1062" y="0" type="line"/>
      <point x="1062" y="1163" type="line"/>
      <point x="1495" y="1598" type="line"/>
      <point x="2108" y="1598" type="line"/>
      <point x="2108" y="0" type="line"/>
      <point x="3110" y="0" type="line"/>
      <point x="3110" y="1600" type="line"/>
      <point x="494" y="1600" type="line"/>
      <point x="60" y="1164" type="line"/>
    </contour>
    <contour>
      <point x="4119" y="0" type="line"/>
      <point x="5121" y="0" type="line"/>
      <point x="5121" y="1600" type="line"/>
      <point x="3315" y="1600" type="line"/>
      <point x="3084" y="1600" type="line"/>
      <point x="3084" y="1598" type="line"/>
      <point x="4119" y="1598" type="line"/>
    </contour>
  </outline>
</glyph>
<glyph name="P" format="2">
  <advance width="5066"/>
  <unicode hex="0050"/>
  <outline>
    <contour>
      <point x="380" y="0" type="line"/>
      <point x="1395" y="0" type="line"/>
      <point x="1395" y="631" type="line"/>
      <point x="4655" y="631" type="line"/>
      <point x="4946" y="921" type="line"/>
      <point x="4946" y="1600" type="line"/>
      <point x="380" y="1600" type="line"/>
    </contour>
    <contour>
      <point x="1395" y="633" type="line"/>
      <point x="1395" y="1598" type="line"/>
      <point x="3931" y="1598" type="line"/>
      <point x="3931" y="885" type="line"/>
      <point x="3690" y="633" type="line"/>
    </contour>
  </outline>
</glyph>
<glyph name="backslash" format="2">
  <advance width="1474"/>
  <unicode hex="005C"/>
  <outline>
    <contour>
      <point x="1052" y="1848" type="line"/>
      <point x="60" y="1706" type="line"/>
      <point x="419" y="-200" type="line"/>
      <point x="1411" y="-58" type="line"/>
    </contour>
  </outline>
</glyph>
<glyph name="b" format="2">
  <advance width="3978"/>
  <unicode hex="0062"/>
  <outline>
    <contour>
      <point x="199" y="0" type="line"/>
      <point x="199" y="1700" type="line"/>
      <point x="1132" y="1700" type="line"/>
      <point x="1132" y="2" type="line"/>
      <point x="2590" y="2" type="line"/>
      <point x="2884" y="362" type="line"/>
      <point x="2884" y="1198" type="line"/>
      <point x="1031" y="1198" type="line"/>
      <point x="1031" y="1200" type="line"/>
      <point x="1565" y="1200" type="line"/>
      <point x="3818" y="1200" type="line"/>
      <point x="3818" y="361" type="line"/>
      <point x="3483" y="0" type="line"/>
    </contour>
  </outline>
</glyph>
<glyph name="f" format="2">
  <advance width="3050"/>
  <unicode hex="0066"/>
  <outline>
    <contour>
      <point x="487" y="0" type="line"/>
      <point x="487" y="1342" type="line"/>
      <point x="820" y="1700" type="line"/>
      <point x="2930" y="1700" type="line"/>
      <point x="2930" y="1698" type="line"/>
      <point x="1717" y="1698" type="line"/>
      <point x="1419" y="1333" type="line"/>
      <point x="1419" y="0" type="line"/>
    </contour>
    <contour>
      <point x="-30" y="858" type="line"/>
      <point x="-30" y="860" type="line"/>
      <point x="192" y="860" type="line"/>
      <point x="892" y="860" type="line"/>
      <point x="1302" y="860" type="line"/>
      <point x="2829" y="860" type="line"/>
      <point x="2829" y="858" type="line"/>
    </contour>
  </outline>
</glyph>
<glyph name="g" format="2">
  <advance width="3798"/>
  <unicode hex="0067"/>
  <outline>
    <contour>
      <point x="1050" y="-300" type="line"/>
      <point x="3338" y="-300" type="line"/>
      <point x="3761" y="160" type="line"/>
      <point x="3761" y="1200" type="line"/>
      <point x="399" y="1200" type="line"/>
      <point x="70" y="836" type="line"/>
      <point x="70" y="169" type="line"/>
      <point x="2370" y="169" type="line"/>
      <point x="2829" y="169" type="line"/>
      <point x="2829" y="162" type="line"/>
      <point x="2453" y="-298" type="line"/>
      <point x="1050" y="-298" type="line"/>
    </contour>
    <contour>
      <point x="1002" y="174" type="line"/>
      <point x="1002" y="836" type="line"/>
      <point x="1296" y="1198" type="line"/>
      <point x="2829" y="1198" type="line"/>
      <point x="2829" y="174" type="line"/>
    </contour>
  </outline>
</glyph>
<glyph name="i" format="2">
  <advance width="1394"/>
  <unicode hex="0069"/>
  <outline>
    <contour>
      <point x="191" y="0" type="line"/>
      <point x="1203" y="0" type="line"/>
      <point x="1203" y="1200" type="line"/>
      <point x="191" y="1200" type="line"/>
    </contour>
    <contour>
      <point x="191" y="1328" type="line"/>
      <point x="1203" y="1328" type="line"/>
      <point x="1203" y="1330" type="line"/>
      <point x="191" y="1330" type="line"/>
    </contour>
  </outline>
</glyph>
<glyph name="l" format="2">
  <advance width="1776"/>
  <unicode hex="006C"/>
  <outline>
    <contour>
      <point x="380" y="0" type="line"/>
      <point x="1396" y="0" type="line"/>
      <point x="1396" y="1700" type="line"/>
      <point x="380" y="1700" type="line"/>
    </contour>
  </outline>
</glyph>
<glyph name="m" format="2">
  <advance width="5212"/>
  <unicode hex="006D"/>
  <outline>
    <contour>
      <point x="60" y="0" type="line"/>
      <point x="1062" y="0" type="line"/>
      <point x="1062" y="763" type="line"/>
      <point x="1495" y="1198" type="line"/>
      <point x="2108" y="1198" type="line"/>
      <point x="2108" y="0" type="line"/>
      <point x="3110" y="0" type="line"/>
      <point x="3110" y="1200" type="line"/>
      <point x="494" y="1200" type="line"/>
      <point x="60" y="764" type="line"/>
    </contour>
    <contour>
      <point x="4119" y="0" type="line"/>
      <point x="5121" y="0" type="line"/>
      <point x="5121" y="1200" type="line"/>
      <point x="3315" y="1200" type="line"/>
      <point x="3084" y="1200" type="line"/>
      <point x="3084" y="1198" type="line"/>
      <point x="4119" y="1198" type="line"/>
    </contour>
  </outline>
</glyph>
<glyph name="s" format="2">
  <advance width="3112"/>
  <unicode hex="0073"/>
  <outline>
    <contour>
      <point x="161" y="0" type="line"/>
      <point x="2618" y="0" type="line"/>
      <point x="2952" y="363" type="line"/>
      <point x="2952" y="611" type="line"/>
      <point x="932" y="611" type="line"/>
      <point x="932" y="838" type="line"/>
      <point x="1226" y="1198" type="line"/>
      <point x="2832" y="1198" type="line"/>
      <point x="2832" y="1200" type="line"/>
      <point x="494" y="1200" type="line"/>
      <point x="160" y="838" type="line"/>
      <point x="160" y="609" type="line"/>
      <point x="2180" y="609" type="line"/>
      <point x="2180" y="364" type="line"/>
      <point x="1885" y="2" type="line"/>
      <point x="161" y="2" type="line"/>
    </contour>
  </outline>
</glyph>
<glyph name="u" format="2">
  <advance width="3943"/>
  <unicode hex="0075"/>
  <outline>
    <contour>
      <point x="160" y="0" type="line"/>
      <point x="3418" y="0" type="line"/>
      <point x="3752" y="362" type="line"/>
      <point x="3752" y="1200" type="line"/>
      <point x="2820" y="1200" type="line"/>
      <point x="2820" y="357" type="line"/>
      <point x="2526" y="2" type="line"/>
      <point x="1092" y="2" type="line"/>
      <point x="1092" y="1200" type="line"/>
      <point x="160" y="1200" type="line"/>
    </contour>
  </outline>
</glyph>
<glyph name="x" format="2">
  <advance width="2727"/>
  <unicode hex="0078"/>
  <outline>
    <contour>
      <point x="-50" y="1400" type="line"/>
      <point x="-50" y="1398" type="line"/>
      <point x="190" y="1398" type="line"/>
      <point x="1716" y="0" type="line"/>
      <point x="2687" y="0" type="line"/>
      <point x="2687" y="2" type="line"/>
      <point x="2557" y="2" type="line"/>
      <point x="1031" y="1400" type="line"/>
    </contour>
    <contour>
      <point x="-19" y="1" type="line"/>
      <point x="1064" y="1" type="line"/>
      <point x="1422" y="750" type="line"/>
      <point x="517" y="750" type="line"/>
    </contour>
    <contour>
      <point x="1470" y="712" type="line"/>
      <point x="2373" y="712" type="line"/>
      <point x="2746" y="1400" type="line"/>
      <point x="1782" y="1400" type="line"/>
    </contour>
  </outline>
</glyph>
<glyph name="z" format="2">
  <advance width="2857"/>
  <unicode hex="007A"/>
  <outline>
    <contour>
      <point x="170" y="0" type="line"/>
      <point x="2756" y="0" type="line"/>
      <point x="2756" y="2" type="line"/>
      <point x="1372" y="2" type="line"/>
      <point x="1372" y="181" type="line"/>
      <point x="2757" y="1031" type="line"/>
      <point x="2757" y="1200" type="line"/>
      <point x="176" y="1200" type="line"/>
      <point x="176" y="1198" type="line"/>
      <point x="1655" y="1198" type="line"/>
      <point x="1655" y="1031" type="line"/>
      <point x="170" y="182" type="line"/>
    </contour>
  </outline>
</glyph>
<glyph name="ordfeminine" format="2">
  <advance width="2306"/>
  <unicode hex="00AA"/>
  <outline>
    <contour>
      <point x="1600" y="1141" type="line" smooth="yes"/>
      <point x="272" y="1141" type="line"/>
      <point x="272" y="700" type="line" smooth="yes"/>
      <point x="706" y="700" type="line" smooth="yes"/>
      <point x="706" y="1139" type="line" smooth="yes"/>
      <point x="1600" y="1139" type="line" smooth="yes"/>
      <point x="1600" y="700" type="line" smooth="yes"/>
      <point x="2034" y="700" type="line" smooth="yes"/>
      <point x="2034" y="1600" type="line" smooth="yes"/>
      <point x="272" y="1600" type="line" smooth="yes"/>
      <point x="272" y="1339" type="line"/>
      <point x="706" y="1339" type="line"/>
      <point x="706" y="1598" type="line" smooth="yes"/>
      <point x="1600" y="1598" type="line" smooth="yes"/>
    </contour>
    <contour>
      <point x="704" y="702" type="line"/>
      <point x="704" y="700" type="line"/>
      <point x="1600" y="700" type="line"/>
      <point x="1600" y="702" type="line"/>
    </contour>
  </outline>
</glyph>
<glyph name="micro" format="2">
  <advance width="3872"/>
  <unicode hex="00B5"/>
  <outline>
    <contour>
      <point x="191" y="-266" type="line"/>
      <point x="1124" y="-266" type="line"/>
      <point x="1124" y="0" type="line"/>
      <point x="2749" y="0" type="line"/>
      <point x="2749" y="0" type="line"/>
      <point x="3681" y="0" type="line"/>
      <point x="3681" y="1200" type="line"/>
      <point x="2749" y="1200" type="line"/>
      <point x="2749" y="2" type="line"/>
      <point x="1123" y="2" type="line"/>
      <point x="1123" y="1200" type="line"/>
      <point x="191" y="1200" type="line"/>
    </contour>
  </outline>
</glyph>
<glyph name="euro" format="2">
  <advance width="5766"/>
  <unicode hex="20AC"/>
  <outline>
    <contour>
      <point x="3445" y="660" type="line"/>
      <point x="3445" y="662" type="line"/>
      <point x="40" y="662" type="line"/>
      <point x="40" y="660" type="line"/>
    </contour>
    <contour>
      <point x="3445" y="910" type="line"/>
      <point x="3445" y="912" type="line"/>
      <point x="40" y="912" type="line"/>
      <point x="40" y="910" type="line"/>
    </contour>
    <contour>
      <point x="1167" y="1600" type="line"/>
      <point x="770" y="1207" type="line"/>
      <point x="770" y="0" type="line"/>
      <point x="5565" y="0" type="line"/>
      <point x="5565" y="527" type="line"/>
      <point x="4553" y="527" type="line"/>
      <point x="4553" y="2" type="line"/>
      <point x="1782" y="2" type="line"/>
      <point x="1782" y="1207" type="line"/>
      <point x="2179" y="1598" type="line"/>
      <point x="4554" y="1598" type="line"/>
      <point x="4554" y="1074" type="line"/>
      <point x="5566" y="1074" type="line"/>
      <point x="5566" y="1600" type="line"/>
    </contour>
  </outline>
</glyph>
<glyph name="C.wide" format="2">
	<advance width="4974"/>
	<outline>
		<contour>
			<point x="190" y="0" type="line"/>
			<point x="4794" y="0" type="line"/>
			<point x="4794" y="2" type="line"/>
			<point x="1205" y="2" type="line"/>
			<point x="1205" y="1144" type="line"/>
			<point x="1638" y="1598" type="line"/>
			<point x="4793" y="1598" type="line"/>
			<point x="4793" y="1600" type="line"/>
			<point x="688" y="1600" type="line"/>
			<point x="190" y="1105" type="line"/>
		</contour>
	</outline>
</glyph>
<glyph name="G.wide" format="2">
	<advance width="5543"/>
	<outline>
		<contour>
			<point x="190" y="0" type="line"/>
			<point x="5242" y="0" type="line"/>
			<point x="5242" y="801" type="line"/>
			<point x="2960" y="801" type="line"/>
			<point x="2960" y="799" type="line"/>
			<point x="4227" y="799" type="line"/>
			<point x="4227" y="2" type="line"/>
			<point x="1205" y="2" type="line"/>
			<point x="1205" y="1104" type="line"/>
			<point x="1713" y="1598" type="line"/>
			<point x="5241" y="1598" type="line"/>
			<point x="5241" y="1600" type="line"/>
			<point x="698" y="1600" type="line"/>
			<point x="190" y="1105" type="line"/>
		</contour>
	</outline>
</glyph>
<glyph name="L.wide" format="2">
	<advance width="4913"/>
	<outline>
		<contour>
			<point x="380" y="0" type="line"/>
			<point x="380" y="1600" type="line"/>
			<point x="1396" y="1600" type="line"/>
			<point x="1396" y="2" type="line"/>
			<point x="4583" y="2" type="line"/>
			<point x="4583" y="0" type="line"/>
		</contour>
	</outline>
</glyph>
<glyph name="Z.wide" format="2">
	<advance width="5258"/>
	<outline>
		<contour>
			<point x="300" y="0" type="line"/>
			<point x="4958" y="0" type="line"/>
			<point x="4958" y="2" type="line"/>
			<point x="1382" y="2" type="line"/>
			<point x="1382" y="436" type="line"/>
			<point x="4909" y="1076" type="line"/>
			<point x="4909" y="1600" type="line"/>
			<point x="333" y="1600" type="line"/>
			<point x="333" y="1598" type="line"/>
			<point x="3836" y="1598" type="line"/>
			<point x="3836" y="1158" type="line"/>
			<point x="300" y="524" type="line"/>
		</contour>
	</outline>
</glyph>
<glyph name="eight.smol" format="2">
  <advance width="3887"/>
  <outline>
    <contour>
      <point x="191" y="0" type="line"/>
      <point x="3696" y="0" type="line"/>
      <point x="3696" y="391" type="line"/>
      <point x="3367" y="596" type="line"/>
      <point x="3367" y="692" type="line"/>
      <point x="3557" y="692" type="line"/>
      <point x="3557" y="1241" type="line"/>
      <point x="282" y="1241" type="line"/>
      <point x="282" y="869" type="line"/>
      <point x="541" y="675" type="line"/>
      <point x="541" y="581" type="line"/>
      <point x="191" y="581" type="line"/>
    </contour>
    <contour>
      <point x="884" y="2" type="line"/>
      <point x="884" y="620" type="line"/>
      <point x="2674" y="620" type="line"/>
      <point x="3003" y="398" type="line"/>
      <point x="3003" y="2" type="line"/>
    </contour>
    <contour>
      <point x="1166" y="621" type="line"/>
      <point x="907" y="831" type="line"/>
      <point x="907" y="1239" type="line"/>
      <point x="2898" y="1239" type="line"/>
      <point x="2898" y="621" type="line"/>
    </contour>
  </outline>
</glyph>
<glyph name="five.smol" format="2">
  <advance width="3526"/>
  <outline>
    <contour>
      <point x="254" y="0" type="line"/>
      <point x="3336" y="0" type="line"/>
      <point x="3336" y="621" type="line"/>
      <point x="945" y="621" type="line"/>
      <point x="945" y="1239" type="line"/>
      <point x="3336" y="1239" type="line"/>
      <point x="3336" y="1241" type="line"/>
      <point x="253" y="1241" type="line"/>
      <point x="253" y="619" type="line"/>
      <point x="2643" y="619" type="line"/>
      <point x="2643" y="2" type="line"/>
      <point x="948" y="2" type="line"/>
      <point x="948" y="350" type="line"/>
      <point x="254" y="350" type="line"/>
    </contour>
  </outline>
</glyph>
<glyph name="four.smol" format="2">
  <advance width="3402"/>
  <outline>
    <contour>
      <point x="2294" y="0" type="line"/>
      <point x="2987" y="0" type="line"/>
      <point x="2987" y="620" type="line"/>
      <point x="3348" y="620" type="line"/>
      <point x="3348" y="622" type="line"/>
      <point x="2987" y="622" type="line"/>
      <point x="2987" y="1241" type="line"/>
      <point x="2294" y="1241" type="line"/>
      <point x="2294" y="622" type="line"/>
      <point x="748" y="622" type="line"/>
      <point x="748" y="715" type="line"/>
      <point x="1021" y="1241" type="line"/>
      <point x="421" y="1382" type="line"/>
      <point x="55" y="715" type="line"/>
      <point x="55" y="620" type="line"/>
      <point x="2294" y="620" type="line"/>
    </contour>
  </outline>
</glyph>
<glyph name="nine.smol" format="2">
  <advance width="3634"/>
  <outline>
    <contour>
      <point x="3504" y="1241" type="line"/>
      <point x="171" y="1241" type="line"/>
      <point x="171" y="620" type="line"/>
      <point x="2811" y="620" type="line"/>
      <point x="2811" y="353" type="line"/>
      <point x="2514" y="2" type="line"/>
      <point x="954" y="2" type="line"/>
      <point x="954" y="412" type="line"/>
      <point x="260" y="412" type="line"/>
      <point x="260" y="0" type="line"/>
      <point x="3161" y="0" type="line"/>
      <point x="3504" y="381" type="line"/>
    </contour>
    <contour>
      <point x="864" y="622" type="line"/>
      <point x="864" y="1239" type="line"/>
      <point x="2811" y="1239" type="line"/>
      <point x="2811" y="622" type="line"/>
    </contour>
  </outline>
</glyph>
<glyph name="six.smol" format="2">
  <advance width="3634"/>
  <outline>
    <contour>
      <point x="130" y="0" type="line"/>
      <point x="3463" y="0" type="line"/>
      <point x="3463" y="621" type="line"/>
      <point x="823" y="621" type="line"/>
      <point x="823" y="888" type="line"/>
      <point x="1120" y="1239" type="line"/>
      <point x="2680" y="1239" type="line"/>
      <point x="2680" y="828" type="line"/>
      <point x="3374" y="828" type="line"/>
      <point x="3374" y="1241" type="line"/>
      <point x="472" y="1241" type="line"/>
      <point x="130" y="859" type="line"/>
    </contour>
    <contour>
      <point x="2769" y="619" type="line"/>
      <point x="2769" y="2" type="line"/>
      <point x="823" y="2" type="line"/>
      <point x="823" y="619" type="line"/>
    </contour>
  </outline>
</glyph>
